<svg width="229" height="199" viewBox="0 0 229 199" fill="none" xmlns="http://www.w3.org/2000/svg">
<ellipse cx="71.2607" cy="157.873" rx="67.3151" ry="24.5" transform="rotate(14.14 71.2607 157.873)" fill="black"/>
<path d="M211.527 85.7159C210.564 80.9 208.076 73.1143 206.952 69.8234C221.4 68.2823 226.136 75.442 226.697 79.2144C226.457 87.6423 212.25 85.7159 211.527 85.7159Z" fill="#FDDC3F"/>
<path d="M30.2078 78.7328C21.3465 77.3844 17.5259 82.3448 16.7233 84.9935C16.0009 91.2542 30.6894 94.1438 29.7262 92.2174C28.9557 90.6763 29.7262 82.5856 30.2078 78.7328Z" fill="#FDDC3F"/>
<path d="M211.527 85.7159C210.564 80.9 208.076 73.1143 206.952 69.8234C221.4 68.2823 226.136 75.442 226.697 79.2144C226.457 87.6423 212.25 85.7159 211.527 85.7159Z" stroke="black" stroke-width="3"/>
<path d="M30.2078 78.7328C21.3465 77.3844 17.5259 82.3448 16.7233 84.9935C16.0009 91.2542 30.6894 94.1438 29.7262 92.2174C28.9557 90.6763 29.7262 82.5856 30.2078 78.7328Z" stroke="black" stroke-width="3"/>
<path d="M29.0039 103.294C19.5647 43.5765 74.3538 20.2995 102.928 16.1257C102.158 6.10865 108.386 2.64118 111.597 2.15958C120.844 0.811119 126.687 8.34001 128.453 12.273C192.793 20.1711 211.126 65.1679 212.25 86.679C215.525 168.935 157.75 189.017 128.453 188.777C92.0925 191.666 40.8029 177.941 29.0039 103.294Z" fill="#FDDC3F" stroke="black" stroke-width="3"/>
<path d="M191.541 71.5089C166.113 10.0577 105.336 23.4299 78.1264 37.7974C50.3867 53.401 48.1072 92.7792 50.4349 110.518C53.5171 165.034 110.473 174.971 138.566 173.125C208.686 168.887 203.1 103.615 191.541 71.5089Z" fill="black" stroke="black"/>
<path d="M101.965 30.3327C100.039 29.7548 87.0357 35.2289 80.775 38.0381V38.5198C80.2131 41.7304 81.4974 47.5256 91.1292 45.0213C100.761 42.517 102.366 34.1854 101.965 30.3327Z" fill="white" stroke="black"/>
<path d="M127.73 27.684C123.492 26.9134 111.035 28.6471 105.336 29.6103C103.41 41.9391 110.955 45.0213 114.968 45.0213C125.563 43.0949 127.891 32.6604 127.73 27.684Z" fill="white" stroke="black"/>
<path d="M153.014 32.0183C146.657 27.7803 135.917 27.2023 131.342 27.4431C131.342 33.4149 133.75 38.9211 134.954 40.9278C138.229 44.5879 143.061 44.3792 145.068 43.8173C153.158 41.313 153.736 34.9078 153.014 32.0183Z" fill="white" stroke="black"/>
<path d="M91.1293 165.66C94.0189 167.346 98.8348 167.827 99.3164 167.827C97.5827 165.516 97.9519 160.604 98.3532 158.436C92.9594 155.932 91.2899 162.209 91.1293 165.66Z" fill="white"/>
<path d="M114.246 158.436C107.985 153.139 104.373 157.955 102.688 159.64C101.724 163.252 102.366 166.864 103.169 169.272L117.135 170.235C117.328 167.731 115.289 161.326 114.246 158.436Z" fill="white"/>
<path d="M136.399 171.439C135.051 158.533 129.416 155.145 126.767 155.065C120.795 155.065 120.266 165.66 120.747 170.958L136.399 171.439Z" fill="white"/>
<path d="M155.181 169.513C154.025 156.799 147.476 153.299 144.345 153.139C140.493 153.717 138.887 165.58 138.566 171.439C142.226 171.825 151.168 170.316 155.181 169.513Z" fill="white"/>
<path d="M172.037 163.493C166.836 167.346 160.077 168.791 157.348 169.031C157.75 167.908 158.456 164.071 158.071 157.714C157.685 151.357 160.639 149.126 162.164 148.805C168.521 147.456 171.395 158.035 172.037 163.493Z" fill="white"/>
<path d="M174.926 161.085C173.771 151.068 175.408 145.353 176.371 143.748C176.872 142.592 177.864 142.624 178.298 142.785C181.572 142.785 183.354 149.687 183.836 153.139L174.926 161.085Z" fill="white"/>
<path d="M91.1293 165.66C94.0189 167.346 98.8348 167.827 99.3164 167.827C97.5827 165.516 97.9519 160.604 98.3532 158.436C92.9594 155.932 91.2899 162.209 91.1293 165.66Z" stroke="black"/>
<path d="M114.246 158.436C107.985 153.139 104.373 157.955 102.688 159.64C101.724 163.252 102.366 166.864 103.169 169.272L117.135 170.235C117.328 167.731 115.289 161.326 114.246 158.436Z" stroke="black"/>
<path d="M136.399 171.439C135.051 158.533 129.416 155.145 126.767 155.065C120.795 155.065 120.266 165.66 120.747 170.958L136.399 171.439Z" stroke="black"/>
<path d="M155.181 169.513C154.025 156.799 147.476 153.299 144.345 153.139C140.493 153.717 138.887 165.58 138.566 171.439C142.226 171.825 151.168 170.316 155.181 169.513Z" stroke="black"/>
<path d="M172.037 163.493C166.836 167.346 160.077 168.791 157.348 169.031C157.75 167.908 158.456 164.071 158.071 157.714C157.685 151.357 160.639 149.126 162.164 148.805C168.521 147.456 171.395 158.035 172.037 163.493Z" stroke="black"/>
<path d="M174.926 161.085C173.771 151.068 175.408 145.353 176.371 143.748C176.872 142.592 177.864 142.624 178.298 142.785C181.572 142.785 183.354 149.687 183.836 153.139L174.926 161.085Z" stroke="black"/>
<path d="M145.549 135.079C124.167 107.532 84.3068 116.377 67.0497 124.243C67.0497 124.243 64.127 125.326 62.7154 126.651C61.3272 127.954 60.0666 130.745 60.0666 130.745C62.4746 150.731 88.4806 163.734 88.9622 162.53C89.4437 161.326 90.6477 156.51 93.5373 155.306C95.8489 154.343 98.6743 155.707 99.798 156.51C99.9585 155.948 101.724 154.535 107.503 153.379C113.283 152.224 117.296 157.553 118.58 160.363C118.339 158.195 119.351 153.62 125.322 152.657C131.294 151.694 135.677 157.393 137.121 160.363C138.807 155.065 140.011 151.694 144.827 150.731C148.68 149.96 153.656 155.547 155.663 158.436C154.314 150.345 158.632 147.199 160.96 146.637C166.932 145.289 170.833 149.446 172.037 151.694C171.154 148.885 170.688 142.784 175.89 140.858C181.091 138.932 184.638 145.995 185.762 149.768C189.701 146.913 195.291 133.146 194.672 127.374C190.819 120.246 181.187 114.772 176.853 112.926C153.255 103.053 127.49 117.983 130.861 118.705C134.232 119.427 146.994 130.504 147.716 133.393C148.294 135.705 146.512 135.48 145.549 135.079Z" fill="#01644D" stroke="black"/>
<path d="M114.072 11.7353C114.264 10.5795 112.226 9.96944 111.182 9.80891C109.737 10.0497 109.737 13.9024 111.664 13.9024C113.59 13.9024 113.831 13.1801 114.072 11.7353Z" fill="black"/>
<path d="M121.296 9.32731C120.91 8.55677 119.53 9.00625 118.888 9.32731C117.202 9.74809 117.684 13.1801 119.61 13.1801C121.536 13.1801 121.777 10.2905 121.296 9.32731Z" fill="black"/>
<path d="M114.072 11.7353C114.264 10.5795 112.226 9.96944 111.182 9.80891C109.737 10.0497 109.737 13.9024 111.664 13.9024C113.59 13.9024 113.831 13.1801 114.072 11.7353Z" stroke="black"/>
<path d="M121.296 9.32731C120.91 8.55677 119.53 9.00625 118.888 9.32731C117.202 9.74809 117.684 13.1801 119.61 13.1801C121.536 13.1801 121.777 10.2905 121.296 9.32731Z" stroke="black"/>
<path d="M93.9025 80.788C92.4729 80.9361 91.2741 80.6102 90.3061 79.8102C89.3456 79.0095 88.7824 77.8082 88.6165 76.2065L87.672 67.0899C87.4735 65.1738 87.6995 63.6677 88.35 62.5714C89.008 61.4744 90.194 60.8371 91.9081 60.6595C92.8437 60.5626 93.6923 60.6487 94.454 60.9177C95.2232 61.1861 95.853 61.6428 96.3435 62.288C96.8332 62.9257 97.132 63.7647 97.2397 64.8051L97.5933 68.2182L93.6638 68.6253L93.3614 65.7062C93.3001 65.1149 93.1842 64.726 93.0136 64.5394C92.8422 64.3453 92.5993 64.2646 92.2849 64.2971C91.9182 64.3351 91.6851 64.4954 91.5858 64.7781C91.4857 65.0532 91.4585 65.4116 91.5043 65.8532L92.529 75.7444C92.5856 76.2908 92.7041 76.6681 92.8845 76.8764C93.0725 77.0839 93.3161 77.1721 93.6155 77.1411C93.9523 77.1062 94.1738 76.9433 94.2798 76.6524C94.3933 76.3607 94.4272 75.9941 94.3814 75.5525L94.0127 71.9934L97.9872 71.5817L98.3745 75.3204C98.5544 77.0569 98.2472 78.3634 97.4529 79.24C96.6578 80.1092 95.4744 80.6252 93.9025 80.788Z" fill="white"/>
<path d="M103.575 79.6044L101.528 59.8444L105.66 59.4164L106.136 64.0084C106.287 63.3571 106.572 62.8586 106.991 62.5127C107.408 62.1593 107.916 61.9515 108.515 61.8895C109.682 61.7685 110.57 62.0473 111.177 62.7258C111.785 63.4042 112.152 64.3609 112.28 65.5959L113.624 78.5634L109.559 78.9844L108.243 66.2752C108.205 65.9084 108.095 65.6172 107.914 65.4015C107.74 65.1849 107.489 65.0937 107.159 65.1278C106.882 65.1565 106.674 65.2992 106.534 65.5557C106.402 65.8115 106.353 66.1041 106.387 66.4334L107.707 79.1763L103.575 79.6044Z" fill="white"/>
<path d="M123.39 77.7332C122.192 77.8573 121.215 77.7316 120.457 77.3562C119.699 76.9807 119.123 76.386 118.729 75.572C118.334 74.758 118.075 73.756 117.952 72.5659L117.251 65.7959C117.089 64.2316 117.415 63.0024 118.231 62.1085C119.045 61.2071 120.238 60.675 121.81 60.5121C125.043 60.1772 126.824 61.5965 127.153 64.77L127.28 65.9938C127.434 67.4758 127.522 68.4728 127.545 68.9849L121.706 69.5897L122.044 72.8456C122.075 73.145 122.124 73.4387 122.192 73.7267C122.259 74.0073 122.365 74.2345 122.512 74.4085C122.666 74.5816 122.889 74.6531 123.181 74.6229C123.6 74.5794 123.844 74.3727 123.911 74.0025C123.978 73.6249 123.981 73.1442 123.921 72.5604L123.753 70.9437L127.75 70.5296L127.849 71.4839C127.979 72.7414 127.931 73.813 127.705 74.6988C127.486 75.5764 127.028 76.2706 126.332 76.7815C125.643 77.2842 124.662 77.6014 123.39 77.7332ZM121.477 67.5936L123.385 67.3959L123.151 65.128C123.088 64.5217 122.968 64.0953 122.791 63.8489C122.613 63.5949 122.375 63.4835 122.076 63.5145C121.754 63.5478 121.516 63.701 121.363 63.9741C121.217 64.2464 121.177 64.697 121.242 65.3257L121.477 67.5936Z" fill="white"/>
<path d="M133.702 76.4833L132.352 63.4485L131.622 63.5241L131.305 60.459L132.035 60.3834L131.916 59.2382C131.728 57.4269 132.54 56.4274 134.351 56.2398C135.205 56.1514 135.905 56.1886 136.451 56.3514L136.708 58.8326C136.517 58.8145 136.392 58.8086 136.332 58.8148C136.1 58.8389 135.966 58.9397 135.932 59.1172C135.896 59.2873 135.892 59.5034 135.919 59.7653L135.942 59.9787L136.817 59.8879L137.139 62.9979L136.342 63.0805L137.688 76.0704L133.702 76.4833Z" fill="white"/>
<path d="M100.863 107.668L97.5056 105.928C97.1564 106.063 96.791 106.15 96.4092 106.189C94.8674 106.349 93.6412 106.015 92.7308 105.186C91.8278 104.357 91.2856 103.066 91.1041 101.315L90.1143 91.7603C89.9383 90.0613 90.22 88.7271 90.9593 87.7578C91.7061 86.7878 92.8691 86.2209 94.4484 86.0573C96.0277 85.8937 97.2785 86.2105 98.2008 87.0076C99.1306 87.804 99.6836 89.0517 99.8596 90.7507L100.849 100.305C101.018 101.937 100.785 103.258 100.148 104.27L101.955 105.172L100.863 107.668ZM96.1559 102.539C96.4403 102.509 96.6315 102.384 96.7296 102.162C96.8351 101.939 96.887 101.673 96.8851 101.363C96.8907 101.052 96.8788 100.754 96.8494 100.47L95.8921 91.2298C95.8487 90.8107 95.75 90.4426 95.5962 90.1257C95.449 89.8005 95.1846 89.6577 94.8028 89.6973C94.4136 89.7376 94.1762 89.9286 94.0905 90.2704C94.0041 90.6046 93.983 90.9851 94.0272 91.4117L94.9938 100.742C95.0209 101.003 95.065 101.283 95.1259 101.579C95.1936 101.867 95.3056 102.109 95.4621 102.304C95.6177 102.493 95.849 102.571 96.1559 102.539Z" fill="white"/>
<path d="M109.918 104.79C109.02 104.883 108.312 104.767 107.794 104.443C107.284 104.117 106.908 103.63 106.667 102.982C106.425 102.326 106.257 101.549 106.164 100.651L104.865 88.1102L108.907 87.6914L110.157 99.7607C110.227 100.434 110.328 100.9 110.461 101.159C110.593 101.41 110.853 101.516 111.243 101.475C111.662 101.432 111.904 101.218 111.97 100.832C112.044 100.447 112.05 99.958 111.989 99.3667L110.759 87.4995L114.767 87.0843L116.512 103.925L112.493 104.342L112.307 102.545C112.119 103.215 111.863 103.737 111.538 104.111C111.221 104.485 110.681 104.711 109.918 104.79Z" fill="white"/>
<path d="M126.312 103.091C125.114 103.216 124.137 103.09 123.379 102.714C122.622 102.339 122.045 101.744 121.651 100.93C121.256 100.116 120.998 99.1143 120.874 97.9242L120.173 91.1542C120.011 89.5898 120.337 88.3607 121.153 87.4668C121.967 86.5654 123.16 86.0333 124.732 85.8704C127.965 85.5354 129.747 86.9547 130.075 90.1283L130.202 91.3521C130.356 92.8341 130.444 93.8311 130.467 94.3432L124.628 94.948L124.966 98.2039C124.997 98.5033 125.046 98.797 125.114 99.085C125.181 99.3656 125.287 99.5928 125.434 99.7667C125.588 99.9399 125.811 100.011 126.103 99.9811C126.522 99.9377 126.766 99.7309 126.833 99.3608C126.9 98.9832 126.903 98.5025 126.843 97.9187L126.675 96.3019L130.672 95.8879L130.771 96.8422C130.901 98.0996 130.853 99.1713 130.627 100.057C130.408 100.935 129.95 101.629 129.254 102.14C128.565 102.642 127.584 102.96 126.312 103.091ZM124.399 92.9519L126.308 92.7541L126.073 90.4862C126.01 89.88 125.89 89.4536 125.713 89.2071C125.536 88.9532 125.297 88.8417 124.998 88.8727C124.676 88.9061 124.438 89.0593 124.285 89.3324C124.139 89.6047 124.099 90.0552 124.164 90.684L124.399 92.9519Z" fill="white"/>
<path d="M136.254 101.88L134.509 85.0391L138.596 84.6157L138.79 86.4906C138.917 85.8193 139.209 85.2747 139.665 84.8567C140.121 84.4388 140.723 84.1911 141.472 84.1135L141.82 87.4705C141.49 87.5046 141.101 87.5827 140.652 87.7049C140.203 87.8195 139.812 87.9583 139.481 88.1212C139.149 88.2767 138.991 88.4292 139.007 88.5789L140.341 101.457L136.254 101.88Z" fill="white"/>
<path d="M147.64 103.537L147.376 100.989L149.307 100.789C149.599 100.758 149.734 100.642 149.713 100.44C149.702 100.335 149.68 100.228 149.646 100.118L145.301 83.9211L149.152 83.5221L151.559 95.8007L151.599 83.2686L155.473 82.8673L154.187 100.907C154.141 101.555 153.973 102.057 153.685 102.412C153.405 102.774 152.901 102.992 152.175 103.067L147.64 103.537Z" fill="white"/>
</svg>
